<svg width="16" height="17" viewBox="0 0 16 17" fill="none" xmlns="http://www.w3.org/2000/svg">
<path d="M2.90617 9.74549L7.44728 14.0114L7.44731 14.0114C7.4916 14.053 7.51374 14.0738 7.53455 14.0896C7.71333 14.2255 7.96073 14.2255 8.13951 14.0896C8.16032 14.0738 8.18247 14.053 8.22677 14.0114L12.7679 9.74549C14.0456 8.54524 14.2007 6.57011 13.1261 5.18508L12.9241 4.92465C11.6386 3.26776 9.05818 3.54563 8.1549 5.43823C8.0273 5.70557 7.64676 5.70557 7.51916 5.43823C6.61587 3.54563 4.03549 3.26776 2.74997 4.92466L2.54792 5.18508C1.47332 6.57012 1.62848 8.54525 2.90617 9.74549Z" stroke="white" stroke-opacity="0.8"/>
</svg>
