<svg width="34" height="34" viewBox="0 0 34 34" fill="none" xmlns="http://www.w3.org/2000/svg">
<path d="M9.54975 12.9094C9.64538 12.2825 10.2701 11.6875 11.152 11.6875C12.0339 11.6875 12.6586 12.2825 12.7542 12.9094C12.7705 13.0513 12.8151 13.1884 12.8856 13.3127C12.956 13.4369 13.0508 13.5457 13.1642 13.6325C13.2776 13.7193 13.4074 13.7823 13.5457 13.8178C13.6841 13.8533 13.8282 13.8606 13.9694 13.8391C14.1106 13.8177 14.246 13.768 14.3676 13.6931C14.4891 13.6181 14.5943 13.5194 14.6769 13.4028C14.7594 13.2863 14.8177 13.1543 14.848 13.0147C14.8784 12.8752 14.8804 12.7309 14.8537 12.5906C14.5839 10.8163 12.971 9.5625 11.152 9.5625C9.333 9.5625 7.72013 10.8163 7.45025 12.5906C7.42363 12.7309 7.42557 12.8752 7.45596 13.0147C7.48634 13.1543 7.54455 13.2863 7.62711 13.4028C7.70967 13.5194 7.81487 13.6181 7.93644 13.6931C8.05801 13.768 8.19344 13.8177 8.33464 13.8391C8.47585 13.8606 8.61993 13.8533 8.75827 13.8178C8.8966 13.7823 9.02637 13.7193 9.13979 13.6325C9.25322 13.5457 9.34799 13.4369 9.41842 13.3127C9.48886 13.1884 9.53353 13.0513 9.54975 12.9094ZM22.8395 11.6875C21.9576 11.6875 21.335 12.2825 21.2373 12.9094C21.186 13.1796 21.0319 13.4194 20.8075 13.5783C20.5831 13.7373 20.3058 13.8031 20.0339 13.7618C19.762 13.7205 19.5167 13.5754 19.3496 13.357C19.1824 13.1386 19.1065 12.8639 19.1377 12.5906C19.4076 10.8163 21.0205 9.5625 22.8395 9.5625C24.6585 9.5625 26.2714 10.8163 26.5413 12.5906C26.5725 12.8639 26.4966 13.1386 26.3294 13.357C26.1623 13.5754 25.917 13.7205 25.6451 13.7618C25.3732 13.8031 25.0959 13.7373 24.8715 13.5783C24.6471 13.4194 24.493 13.1796 24.4417 12.9094C24.344 12.2825 23.7214 11.6875 22.8395 11.6875ZM7.42687 17C7.27867 17.0002 7.13214 17.0314 6.99671 17.0915C6.86127 17.1517 6.73992 17.2396 6.64046 17.3494C6.54099 17.4593 6.46562 17.5888 6.41917 17.7295C6.37272 17.8702 6.35623 18.0191 6.37075 18.1666C6.8765 23.358 10.9522 27.625 16.9894 27.625C23.0265 27.625 27.1044 23.358 27.6101 18.1666C27.6247 18.019 27.6081 17.8699 27.5615 17.729C27.515 17.5881 27.4394 17.4585 27.3397 17.3486C27.24 17.2387 27.1184 17.1509 26.9827 17.0909C26.847 17.0308 26.7003 16.9999 26.5519 17H7.42687ZM16.9894 25.5C12.5672 25.5 9.51788 22.7311 8.67638 19.125H25.3045C24.4609 22.7311 21.4136 25.5 16.9894 25.5ZM17 0C12.4913 0 8.1673 1.79107 4.97919 4.97919C1.79107 8.1673 0 12.4913 0 17C0 21.5087 1.79107 25.8327 4.97919 29.0208C8.1673 32.2089 12.4913 34 17 34C21.5087 34 25.8327 32.2089 29.0208 29.0208C32.2089 25.8327 34 21.5087 34 17C34 12.4913 32.2089 8.1673 29.0208 4.97919C25.8327 1.79107 21.5087 0 17 0ZM2.125 17C2.125 15.0466 2.50975 13.1123 3.25729 11.3076C4.00483 9.50287 5.10051 7.86306 6.48179 6.48179C7.86306 5.10051 9.50287 4.00483 11.3076 3.25729C13.1123 2.50975 15.0466 2.125 17 2.125C18.9534 2.125 20.8877 2.50975 22.6924 3.25729C24.4971 4.00483 26.1369 5.10051 27.5182 6.48179C28.8995 7.86306 29.9952 9.50287 30.7427 11.3076C31.4902 13.1123 31.875 15.0466 31.875 17C31.875 20.9451 30.3078 24.7286 27.5182 27.5182C24.7286 30.3078 20.9451 31.875 17 31.875C13.0549 31.875 9.27139 30.3078 6.48179 27.5182C3.69218 24.7286 2.125 20.9451 2.125 17Z" fill="#F8F8F8" fill-opacity="0.85"/>
</svg>
