<svg width="34" height="34" viewBox="0 0 34 34" fill="none" xmlns="http://www.w3.org/2000/svg">
<g clip-path="url(#clip0_542_162)">
<path fill-rule="evenodd" clip-rule="evenodd" d="M26.5473 28.4068C23.9157 30.609 20.6037 31.8336 17.1725 31.8732C13.7413 31.9127 10.4019 30.7648 7.7203 28.6239C5.03865 26.483 3.17966 23.4808 2.45834 20.126C1.73702 16.7713 2.19773 13.2703 3.76241 10.2164C5.3271 7.16244 7.89951 4.7434 11.0437 3.36915C14.188 1.99491 17.7106 1.75 21.0148 2.67592C24.3189 3.60184 27.2013 5.64164 29.1736 8.44966C31.1458 11.2577 32.0865 14.6612 31.8364 18.0835C32.5674 18.1537 33.2814 18.3959 33.9083 18.7805C34.324 14.8371 33.3482 10.8725 31.1497 7.57253C28.9513 4.27257 25.6684 1.84494 21.8691 0.709683C18.0699 -0.425573 13.9933 -0.19703 10.3447 1.35577C6.69618 2.90856 3.70521 5.68792 1.88934 9.21293C0.0734635 12.7379 -0.453065 16.7868 0.400855 20.659C1.25478 24.5312 3.43542 27.9831 6.56548 30.4174C9.69553 32.8517 13.5781 34.1153 17.5413 33.9895C21.5046 33.8637 25.2992 32.3564 28.2685 29.7285C27.6702 29.3209 27.0955 28.8796 26.5473 28.4068ZM18.6189 21.5643C17.8252 21.7547 17.0403 21.9801 16.2665 22.24C16.1324 22.2894 15.9898 22.3112 15.8471 22.3042C15.7044 22.2972 15.5646 22.2614 15.436 22.1991C15.3074 22.1368 15.1927 22.0492 15.0988 21.9416C15.0049 21.8339 14.9336 21.7084 14.8893 21.5726C14.8449 21.4368 14.8285 21.2934 14.8408 21.1511C14.8532 21.0087 14.8941 20.8703 14.9612 20.7442C15.0283 20.618 15.1201 20.5067 15.2312 20.4168C15.3423 20.327 15.4704 20.2605 15.6078 20.2213C16.4153 19.9557 17.312 19.6815 18.1408 19.4924C18.927 19.3097 19.7983 19.1673 20.4846 19.2629C20.8246 19.3097 21.3219 19.4435 21.6768 19.8707C22.0763 20.3509 22.0741 20.9268 21.9551 21.3688C21.8118 21.8245 21.5888 22.2511 21.2964 22.6289C21.1335 22.8556 20.9387 23.0985 20.712 23.3578C20.9387 23.6213 21.1342 23.8671 21.2985 24.0952C21.6003 24.5138 21.8425 24.9388 21.9573 25.3595C22.0741 25.8015 22.0763 26.3774 21.6768 26.8598C21.3198 27.2848 20.8183 27.4165 20.4804 27.4633C19.794 27.5547 18.9228 27.4059 18.1386 27.2232C17.2853 27.0138 16.4409 26.7692 15.6078 26.49C15.4704 26.4508 15.3423 26.3843 15.2312 26.2945C15.1201 26.2046 15.0283 26.0933 14.9612 25.9671C14.8941 25.841 14.8532 25.7026 14.8408 25.5603C14.8285 25.4179 14.8449 25.2745 14.8893 25.1387C14.9336 25.0029 15.0049 24.8774 15.0988 24.7697C15.1927 24.6621 15.3074 24.5745 15.436 24.5122C15.5646 24.4499 15.7044 24.4141 15.8471 24.4071C15.9898 24.4001 16.1324 24.4219 16.2665 24.4713C17.0549 24.7263 17.8836 24.9813 18.6231 25.1534C18.9971 25.2412 19.3131 25.3007 19.5709 25.3319C19.2423 24.8958 18.8859 24.4813 18.5041 24.0909C18.3132 23.8922 18.2069 23.6272 18.2077 23.3516C18.2085 23.0761 18.3163 22.8116 18.5084 22.614C18.8905 22.2304 19.2456 21.8207 19.5709 21.3879C19.2511 21.4315 18.9334 21.4918 18.6189 21.5643ZM20.2466 21.3794L20.2403 21.3773L20.2339 21.3752L20.2466 21.3794ZM12.7496 16.9998C13.9226 16.9998 14.8746 15.5718 14.8746 13.8123C14.8746 12.0528 13.9226 10.6248 12.7496 10.6248C11.5766 10.6248 10.6246 12.0528 10.6246 13.8123C10.6246 15.5718 11.5766 16.9998 12.7496 16.9998ZM18.6083 15.8034C18.7302 15.8712 18.8643 15.9144 19.0029 15.9303C19.1416 15.9463 19.282 15.9348 19.4162 15.8966C19.5503 15.8583 19.6757 15.7939 19.785 15.7072C19.8943 15.6205 19.9855 15.5131 20.0533 15.3912C20.2204 15.0773 20.469 14.8143 20.7731 14.6299C21.0771 14.4455 21.4253 14.3466 21.7809 14.3435C22.5013 14.3435 23.1515 14.7473 23.5085 15.3912C23.6455 15.6374 23.8747 15.8192 24.1456 15.8965C24.4166 15.9739 24.7072 15.9404 24.9535 15.8034C25.1998 15.6665 25.3816 15.4373 25.4589 15.1663C25.5362 14.8953 25.5027 14.6047 25.3658 14.3584C25.0146 13.7134 24.4966 13.1746 23.866 12.7982C23.2354 12.4218 22.5153 12.2216 21.7809 12.2185C20.2296 12.2185 18.8994 13.094 18.196 14.3584C18.1282 14.4804 18.0851 14.6145 18.0691 14.7531C18.0531 14.8917 18.0646 15.0321 18.1029 15.1663C18.1411 15.3005 18.2055 15.4258 18.2922 15.5351C18.3789 15.6444 18.4863 15.7356 18.6083 15.8034ZM29.7496 20.8843C32.1084 18.4618 38.0031 22.7033 29.7496 28.156C21.4961 22.7033 27.3909 18.4618 29.7496 20.8864V20.8843Z" fill="#F8F8F8" fill-opacity="0.85"/>
</g>
<defs>
<clipPath id="clip0_542_162">
<rect width="34" height="34" fill="white"/>
</clipPath>
</defs>
</svg>
