<svg width="259" height="256" viewBox="0 0 259 256" fill="none" xmlns="http://www.w3.org/2000/svg">
<path d="M202.321 146.037C202.321 125.867 77.5209 134.637 56.5204 123.837C61.9206 135.237 190.32 125.037 198.721 144.837C206.12 162.277 -48.5431 165.785 8.52037 221.037C46.3205 257.637 141.121 227.037 141.121 227.037C141.121 227.037 53.521 252.837 13.3213 221.037C-56.2979 165.965 202.321 170.637 202.321 146.037Z" fill="white"/>
<path fill-rule="evenodd" clip-rule="evenodd" d="M66.121 113.637L64.9203 113.037L60.7203 110.937L60.121 110.637L56.5204 123.837L66.121 113.637ZM60.7203 111.837L57.1203 122.637L57.5604 122.173L58.444 121.24L65.6195 113.669L60.7203 111.837Z" fill="white"/>
<path d="M110.521 0.236861L60.121 110.637L60.7203 110.937L110.826 1.00026L115.051 2.78589C95.7181 44.7596 78.1593 86.0449 64.9203 113.037L66.121 113.637L115.921 2.63686L110.521 0.236861Z" fill="white"/>
<path d="M57.8673 121.437L57.5604 122.173L58.444 121.24L61.5927 116.851L58.444 120.727L57.8673 121.437Z" fill="white"/>
<path d="M59.7772 116.149L57.1203 122.637L57.5604 122.173L57.8673 121.437L58.1579 120.632L59.7772 116.149Z" fill="white"/>
<path d="M58.1579 120.632L57.8673 121.437L58.444 120.727L60.7203 116.037L58.1579 120.632Z" fill="white"/>
<path fill-rule="evenodd" clip-rule="evenodd" d="M110.431 0L110.707 0.122375L110.633 0.287992L110.685 0.311613L110.422 0.886611L110.095 0.737106L110.431 0ZM111.685 0.951347L111.01 0.651347L111.157 0.322375L111.832 0.622375L111.685 0.951347ZM110.735 0.766298L110.984 0.87166L110.913 1.0399L110.99 1.07491L110.729 1.64748L110.402 1.49817L110.735 0.766298ZM111.724 1.57526L111.196 1.35206L111.337 1.02046L111.865 1.24367L111.724 1.57526ZM113.71 1.85135L112.585 1.35135L112.732 1.02237L113.857 1.52237L113.71 1.85135ZM113.309 2.24487L112.429 1.87287L112.569 1.54127L113.449 1.91328L113.309 2.24487ZM115.285 2.55135L114.61 2.25135L114.757 1.92237L115.432 2.22237L115.285 2.55135ZM114.541 2.76568L114.013 2.54248L114.153 2.21088L114.681 2.43409L114.541 2.76568ZM115.809 2.58647L115.757 2.56318L115.497 3.1413L115.826 3.28867L116.159 2.54574L115.882 2.42237L115.809 2.58647ZM114.964 2.74589L114.887 2.71058L114.623 3.28413L114.95 3.43465L115.292 2.69243L115.033 2.58289L114.964 2.74589ZM109.372 3.1866L107.797 6.63661L107.47 6.4871L109.045 3.0371L109.372 3.1866ZM109.685 3.93781L108.12 7.37332L107.792 7.22402L109.358 3.78851L109.685 3.93781ZM112.904 8.92255L114.46 5.4538L114.788 5.60117L113.232 9.06992L112.904 8.92255ZM111.992 9.01887C112.517 7.87261 113.042 6.72533 113.569 5.57729L113.896 5.72748C113.369 6.87536 112.844 8.02249 112.32 9.1686L111.992 9.01887ZM105.697 11.2366L103.072 16.9866L102.745 16.8371L105.37 11.0871L105.697 11.2366ZM106.032 11.954L103.422 17.6798L103.094 17.5305L105.704 11.8047L106.032 11.954ZM108.235 19.3288L110.829 13.5476L111.157 13.6949L108.563 19.4762L108.235 19.3288ZM107.289 19.3549C108.154 17.4449 109.024 15.5295 109.898 13.6103L110.225 13.7594C109.352 15.6785 108.482 17.5936 107.617 19.5034L107.289 19.3549ZM100.972 21.5866L99.3973 25.0366L99.0698 24.8871L100.645 21.4371L100.972 21.5866ZM101.334 22.2605L99.7685 25.696L99.4409 25.5467L101.007 22.1112L101.334 22.2605ZM104.604 27.4226L106.16 23.9538L106.488 24.1012L104.932 27.5699L104.604 27.4226ZM103.655 27.4053C104.172 26.2576 104.69 25.1072 105.21 23.9545L105.538 24.1026C105.018 25.2552 104.5 26.4054 103.983 27.5531L103.655 27.4053ZM98.3473 27.3366L97.8223 28.4866L97.4948 28.3371L98.0198 27.1871L98.3473 27.3366ZM98.7246 27.9864L98.2027 29.1315L97.8751 28.9822L98.397 27.8371L98.7246 27.9864ZM102.103 30.8571L102.621 29.705L102.949 29.8526L102.431 31.0046L102.103 30.8571ZM103.047 30.8913L103.566 29.7351L103.895 29.8824L103.376 31.0387L103.047 30.8913ZM96.7723 30.7866L95.1973 34.2366L94.8698 34.0871L96.4448 30.6371L96.7723 30.7866ZM97.1588 31.4219L95.593 34.8574L95.2654 34.7081L96.8312 31.2726L97.1588 31.4219ZM99.5214 36.6137C100.036 35.4655 100.552 34.3138 101.07 33.1589L101.398 33.3063C100.88 34.4611 100.364 35.6127 99.8499 36.7609L99.5214 36.6137ZM100.454 36.6726L102.01 33.2038L102.338 33.3512L100.782 36.8199L100.454 36.6726ZM93.0973 38.8366L90.4723 44.5866L90.1448 44.4371L92.7698 38.6871L93.0973 38.8366ZM93.5052 39.4381L90.8955 45.1639L90.5679 45.0146L93.1776 39.2888L93.5052 39.4381ZM94.887 46.9817C95.739 45.073 96.5971 43.1514 97.4611 41.2185L97.7898 41.3654C96.9258 43.2982 96.0677 45.2197 95.2158 47.1284L94.887 46.9817ZM95.7849 47.0788L98.3787 41.2976L98.7071 41.4449L96.1134 47.2262L95.7849 47.0788ZM88.3723 49.1866L86.7973 52.6366L86.4698 52.4871L88.0448 49.0371L88.3723 49.1866ZM88.8078 49.7446L87.242 53.1801L86.9144 53.0308L88.4802 49.5953L88.8078 49.7446ZM91.2889 55.047L92.831 51.5897L93.1598 51.7364L91.6177 55.1937L91.2889 55.047ZM92.1537 55.1726L93.7099 51.7038L94.0384 51.8512L92.4821 55.3199L92.1537 55.1726ZM85.7473 54.9366L85.2223 56.0866L84.8948 55.9371L85.4198 54.7871L85.7473 54.9366ZM86.1981 55.4704L85.6761 56.6156L85.3486 56.4663L85.8705 55.3211L86.1981 55.4704ZM89.7467 58.504L90.261 57.3513L90.5898 57.498L90.0755 58.6507L89.7467 58.504ZM90.5974 58.6413L91.1162 57.4851L91.4446 57.6324L90.9259 58.7887L90.5974 58.6413ZM84.1723 58.3866L82.5973 61.8366L82.2698 61.6871L83.8448 58.2371L84.1723 58.3866ZM84.6323 58.9059L83.0665 62.3414L82.7389 62.1921L84.3047 58.7566L84.6323 58.9059ZM87.1755 64.2633C87.6871 63.1182 88.2015 61.9662 88.7187 60.8075L89.0474 60.9543C88.5302 62.1129 88.0158 63.265 87.5041 64.4102L87.1755 64.2633ZM88.0037 64.4226L89.5599 60.9538L89.8884 61.1012L88.3321 64.5699L88.0037 64.4226ZM80.4973 66.4366L77.8723 72.1866L77.5448 72.0371L80.1698 66.2871L80.4973 66.4366ZM80.9787 66.9221L78.369 72.648L78.0414 72.4987L80.6511 66.7728L80.9787 66.9221ZM82.534 74.626C83.3852 72.7316 84.2455 70.8129 85.1144 68.8719L85.443 69.019C84.574 70.9601 83.7136 72.8789 82.8623 74.7736L82.534 74.626ZM83.3349 74.8288L85.9287 69.0475L86.2571 69.1949L83.6634 74.9762L83.3349 74.8288ZM75.7723 76.7866L74.1973 80.2366L73.8698 80.0871L75.4448 76.6371L75.7723 76.7866ZM76.2812 77.2286L74.7154 80.6642L74.3878 80.5149L75.9537 77.0793L76.2812 77.2286ZM78.9026 82.6785C79.4185 81.5393 79.9381 80.3896 80.4614 79.2297L80.7895 79.3778C80.2662 80.5378 79.7465 81.6877 79.2306 82.827L78.9026 82.6785ZM79.7037 82.9225L81.2599 79.4538L81.5884 79.6012L80.0321 83.0699L79.7037 82.9225ZM73.1473 82.5366L72.6223 83.6866L72.2948 83.5371L72.8198 82.3871L73.1473 82.5366ZM73.6716 82.9545L73.1496 84.0997L72.822 83.9504L73.344 82.8052L73.6716 82.9545ZM77.3387 86.1244C77.5123 85.743 77.6862 85.3603 77.8606 84.9763L78.1884 85.1251C78.014 85.5092 77.84 85.892 77.6664 86.2735L77.3387 86.1244ZM78.1474 86.3913L78.6662 85.235L78.9946 85.3824L78.4759 86.5387L78.1474 86.3913ZM71.5723 85.9866L69.9973 89.4366L69.6698 89.2871L71.2448 85.8371L71.5723 85.9866ZM72.1057 86.39L70.5399 89.8255L70.2123 89.6762L71.7782 86.2407L72.1057 86.39ZM74.7167 91.8631C75.2374 90.7289 75.7626 89.5815 76.2921 88.4215L76.6196 88.571C76.09 89.7312 75.5647 90.8789 75.0439 92.0133L74.7167 91.8631ZM75.5537 92.1725L77.1099 88.7038L77.4384 88.8512L75.8821 92.3199L75.5537 92.1725ZM67.8973 94.0366L65.2723 99.7866L64.9448 99.6371L67.5698 93.8871L67.8973 94.0366ZM68.4522 94.4062L65.8425 100.132L65.5149 99.9827L68.1246 94.2569L68.4522 94.4062ZM69.9391 102.153C70.8134 100.294 71.7028 98.3883 72.6066 96.4382L72.9332 96.5896C72.0292 98.5402 71.1395 100.447 70.2648 102.306L69.9391 102.153ZM70.8849 102.579L73.4787 96.7975L73.8071 96.9449L71.2134 102.726L70.8849 102.579ZM63.1723 104.387L61.5973 107.837L61.2698 107.687L62.8448 104.237L63.1723 104.387ZM63.7547 104.713L62.1889 108.148L61.8613 107.999L63.4271 104.563L63.7547 104.713ZM66.138 110.126C66.677 109.012 67.2226 107.877 67.7749 106.721L68.0997 106.876C67.5472 108.033 67.0013 109.169 66.4621 110.283L66.138 110.126ZM67.2537 110.673L68.8099 107.204L69.1384 107.351L67.5821 110.82L67.2537 110.673ZM60.2908 110.698L60.5473 110.137L60.2198 109.987L59.9512 110.575L59.8723 110.864L60.2197 110.959L60.2908 110.698ZM61.145 110.439L60.8841 111.011L60.8093 110.977L60.7273 111.141L60.6273 111.091L60.7076 110.931L60.6567 110.908L60.5774 111.066L60.5024 111.029L60.5805 110.873L60.5565 110.862L60.8175 110.289L61.145 110.439ZM60.4026 110.979L60.2777 110.916L60.4387 110.594L60.5636 110.657L60.4026 110.979ZM61.6023 111.579L61.0773 111.316L61.2383 110.994L61.7633 111.257L61.6023 111.579ZM60.6085 111.603L60.8854 111.706L60.8237 111.871L60.891 111.894L60.816 112.119L60.4745 112.005L60.6085 111.603ZM63.1773 112.366L62.3023 111.929L62.4633 111.607L63.3383 112.044L63.1773 112.366ZM61.7799 112.425L61.1675 112.196L61.2937 111.859L61.9061 112.088L61.7799 112.425ZM59.9196 112.059L59.4695 113.709L59.1222 113.614L59.5723 111.964L59.9196 112.059ZM63.6171 113.112L62.5965 112.731L62.7226 112.394L63.7432 112.775L63.6171 113.112ZM64.4023 112.979L63.8773 112.716L64.0383 112.394L64.5633 112.657L64.4023 112.979ZM64.7587 112.957C64.8498 112.771 64.9412 112.585 65.0328 112.397L65.3562 112.556C65.2909 112.689 65.2256 112.822 65.1605 112.955L65.2759 113.013L65.1346 113.296L65.1722 113.31L65.0461 113.647L64.4337 113.418L64.5598 113.081L64.7527 113.153L64.8324 112.993L64.7587 112.957ZM64.9454 113.049L64.8712 113.197L64.9766 113.237L65.0458 113.098L64.9454 113.049ZM60.516 113.019L60.066 114.369L59.7245 114.255L60.1745 112.905L60.516 113.019ZM66.0336 113.392L66.2162 112.985L66.5446 113.132L66.2728 113.738L66.0521 113.973L65.8024 113.738L65.6006 113.951L65.3393 113.703L65.4888 113.545L65.5336 113.588L65.5472 113.551L65.3151 113.435L65.4761 113.113L65.7262 113.238L65.6088 113.473L65.8196 113.552L65.9263 113.338L66.0336 113.392ZM63.8444 115.28L64.7414 114.334L65.0027 114.582L64.9994 114.585L65.252 114.823L64.0519 116.098L63.7898 115.851L64.0994 115.522L63.8444 115.28ZM58.8694 115.909L58.1193 118.659L57.772 118.564L58.5221 115.814L58.8694 115.909ZM60.8295 116.211L60.8241 116.22L60.6541 116.125L60.5109 116.056L60.5149 116.048L60.5097 116.045L60.5631 115.949L60.8822 116.115L60.8348 116.213L60.8295 116.211ZM59.466 116.169L58.716 118.419L58.3745 118.305L59.1245 116.055L59.466 116.169ZM59.9089 116.302L59.8884 116.352L59.5552 116.216L59.6106 116.081L59.9465 116.21L59.9127 116.303L59.9089 116.302ZM60.2997 117.161L60.2903 117.178L59.9758 117.002L60.2961 116.428L60.3897 116.48L60.6451 116.604L60.3606 117.19L60.2997 117.161ZM61.1536 118.119L62.6485 116.542L62.9098 116.79L61.4149 118.367L61.1536 118.119ZM59.3621 116.768L59.4392 116.555L59.7778 116.677L59.5754 117.237L59.5323 117.222L59.3349 117.704L59.0017 117.567L59.3338 116.756L59.3621 116.768ZM61.6681 117.044L61.6668 117.045L61.6396 117.023L61.3808 116.837L61.392 116.822L61.3874 116.818L61.453 116.737L61.7389 116.956L61.6733 117.047L61.6681 117.044ZM61.3838 117.394L61.4044 117.368L61.125 117.141L60.7314 117.626L60.7845 117.669L60.7248 117.752L61.0174 117.962L61.4109 117.413L61.3838 117.394ZM62.4518 117.798L60.4517 119.923L60.1896 119.676L62.1897 117.551L62.4518 117.798ZM59.3461 118.871L59.3294 118.901L59.034 118.736L58.9681 118.919L58.8542 118.878L58.6001 119.498L58.7891 119.604L58.8037 119.574L59.1276 119.731L59.1008 119.786L59.3053 119.952L59.1091 120.194L59.1559 120.227L59.781 119.568L59.5441 119.398L59.6909 119.193L59.5506 119.079L60.2066 118.272L60.486 118.499L60.3886 118.619L60.4926 118.693L59.9823 119.405L60.219 119.629L59.3221 120.575L59.2152 120.474L58.9183 120.888L58.6257 120.678L58.8404 120.379L58.6475 120.222L58.6044 120.201L58.582 120.241L58.5058 120.199L58.4959 120.226L58.1573 120.104L58.1703 120.068L58.0054 120L58.5589 118.649L58.6669 118.693L58.9669 117.862L59.3055 117.985L59.0801 118.609L59.5488 117.768L59.652 117.826L59.6573 117.815L59.9812 117.972L59.507 118.949L59.3461 118.871ZM57.3995 121.48L57.2508 121.843L57.354 121.465L57.3995 121.48ZM57.7459 121.584L57.6955 121.707L57.8973 121.791L57.7795 121.68L57.8348 121.621L57.7459 121.584ZM57.9081 121.544L57.9477 121.502L57.9128 121.474L57.8088 121.43L57.7836 121.492L57.9081 121.544ZM57.9818 121.503L58.027 121.521L58.0334 121.506L57.9294 121.463L57.9217 121.457L58.0366 121.498L58.0426 121.481L57.8797 121.422L57.829 121.381L57.8479 121.335L57.9294 121.365L58.0671 121.476L58.1392 121.388L58.0907 121.348L58.1032 121.314L58.0038 121.278L57.8597 121.161L57.8336 121.193L57.7964 121.178L57.834 121.065L58.1032 121.162L58.1975 121.239L58.1109 121.33L58.3722 121.578L58.4826 121.461L58.2549 121.245L58.3226 121.162L58.5563 121.383L58.7241 121.206L58.4769 120.972L58.5236 120.914L58.2442 120.687L58.1998 120.742L57.9693 120.659L57.9919 120.591L58.2544 120.686L58.3151 120.72L58.3395 120.676L58.3689 120.69L58.5717 120.855L58.6493 120.76L58.6342 120.747L58.6534 120.708L58.4847 120.626L58.3699 120.533L58.348 120.56L58.3295 120.551L58.3138 120.583L58.2593 120.563L58.0541 120.449L58.0354 120.482L58.0289 120.48L58.116 120.219L57.7745 120.105L57.5016 120.924L57.5192 120.859L57.1719 120.764L56.7218 122.414L56.9811 122.485L56.9495 122.58L57.2509 122.761L57.2601 122.751L57.1544 122.651L57.2868 122.705L57.2875 122.704L57.2968 122.712L57.3518 122.654L57.32 122.624L57.3422 122.57L57.3335 122.566L57.3528 122.508L57.4251 122.577L57.5168 122.48L57.2555 122.232L57.1638 122.329L57.2812 122.441L57.104 122.381L57.2366 121.895L57.4453 121.981L57.4262 122.027L57.4437 122.034L57.4205 122.058L57.4918 122.126L57.4006 122.088L57.3942 122.103L57.5257 122.158L57.6818 122.306L57.7094 122.277L57.6299 122.202L57.7265 122.242L57.7329 122.226L57.5959 122.169L57.4603 122.041L57.7383 122.157L57.7831 122.199L57.8935 122.083L57.6804 121.881L57.848 121.951L57.9096 121.803L58.0408 121.927L58.2249 121.733L58.0179 121.537L58.019 121.536L58.0016 121.521L57.9818 121.503ZM57.9355 120.76L57.8904 120.896L58.0331 120.947L58.076 120.894L58.3252 121.097L58.3634 121.044L58.3745 121.052L58.4341 120.989L58.2689 120.855L58.2606 120.878L57.9355 120.76ZM57.8214 121.4L57.8208 121.401L57.8253 121.403L57.8214 121.4ZM58.8516 121.623L57.6515 122.898L57.3894 122.651L58.5895 121.376L58.8516 121.623ZM57.6452 122.345L57.5901 122.403L57.3289 122.155L57.3839 122.097L57.6452 122.345ZM56.545 123.548L56.4217 123.514L56.3292 123.854L56.3577 123.914C56.4424 124.093 56.5539 124.265 56.69 124.43L56.9257 124.236C56.9393 124.242 56.9529 124.248 56.9666 124.255L57.118 123.928C57.0154 123.881 56.9151 123.833 56.8169 123.784L56.8515 123.748L56.7558 123.658L56.7691 123.609L56.6779 123.584L56.5893 123.501L56.545 123.548ZM59.4428 124.826C60.5126 125.176 61.7175 125.502 63.0459 125.806L62.9657 126.157C61.6293 125.851 60.4135 125.523 59.3309 125.169L59.4428 124.826ZM62.2279 127.015C60.8675 126.673 59.7109 126.294 58.7855 125.873L58.9346 125.545C59.8333 125.954 60.9674 126.327 62.3157 126.666L62.2279 127.015ZM67.9851 126.751C69.9042 127.062 71.9817 127.343 74.1966 127.602L74.155 127.959C71.936 127.701 69.8531 127.418 67.9277 127.107L67.9851 126.751ZM73.0883 128.733C70.912 128.506 68.9029 128.254 67.0876 127.97L67.1432 127.615C68.9509 127.897 70.9537 128.148 73.1256 128.375L73.0883 128.733ZM79.1851 128.123C80.4136 128.239 81.6739 128.349 82.9632 128.455L82.9338 128.814C81.6432 128.708 80.3815 128.598 79.1514 128.482L79.1851 128.123ZM85.4319 128.648C85.8489 128.68 86.2685 128.711 86.6908 128.741L86.6648 129.1C86.2422 129.07 85.8222 129.039 85.4049 129.007L85.4319 128.648ZM81.6055 129.449C80.3539 129.364 79.1352 129.274 77.9527 129.178L77.9816 128.819C79.1625 128.915 80.3797 129.005 81.6301 129.09L81.6055 129.449ZM89.2028 128.916C90.437 128.999 91.6911 129.078 92.9628 129.155L92.9411 129.514C91.6687 129.437 90.4138 129.358 89.1787 129.275L89.2028 128.916ZM85.2824 129.683C84.8705 129.659 84.4616 129.634 84.0557 129.609L84.078 129.25C84.4835 129.275 84.8921 129.3 85.3037 129.324L85.2824 129.683ZM97.9676 129.44C100.024 129.551 102.117 129.656 104.239 129.758L104.222 130.118C102.099 130.016 100.005 129.91 97.9482 129.8L97.9676 129.44ZM91.3573 130.008C90.1144 129.948 88.8915 129.885 87.6909 129.82L87.7104 129.461C88.9102 129.526 90.1324 129.588 91.3747 129.649L91.3573 130.008ZM102.327 130.476C100.263 130.397 98.2311 130.315 96.2404 130.23L96.2558 129.871C98.2458 129.956 100.277 130.037 102.34 130.116L102.327 130.476ZM109.253 129.992C110.502 130.048 111.759 130.104 113.022 130.159L113.006 130.519C111.743 130.463 110.486 130.408 109.236 130.351L109.253 129.992ZM115.526 130.268L116.783 130.322L116.767 130.682L115.51 130.628L115.526 130.268ZM110.843 130.789C109.621 130.745 108.406 130.701 107.199 130.657L107.212 130.298C108.419 130.341 109.634 130.385 110.856 130.429L110.843 130.789ZM119.35 130.433C120.583 130.486 121.818 130.539 123.055 130.592L123.04 130.952C122.228 130.917 121.417 130.882 120.607 130.847L120.596 131.141C119.373 131.095 118.152 131.051 116.936 131.007L116.949 130.647C117.724 130.675 118.502 130.703 119.281 130.732L119.294 130.43L119.35 130.433ZM114.507 130.919L113.288 130.876L113.301 130.516L114.519 130.56L114.507 130.919ZM128.074 130.812C130.167 130.905 132.261 131.001 134.347 131.1L134.33 131.459C133.409 131.416 132.487 131.373 131.564 131.33L131.553 131.578C129.526 131.489 127.494 131.406 125.465 131.326L125.479 130.966C126.34 131 127.201 131.035 128.062 131.07L128.074 130.812ZM139.365 131.348C140.622 131.412 141.874 131.478 143.12 131.547L143.107 131.788C143.321 131.8 143.534 131.812 143.748 131.825L143.727 132.184C143.505 132.171 143.283 132.159 143.061 132.146C142.879 132.136 142.696 132.126 142.514 132.115L142.527 131.875C141.716 131.831 140.903 131.788 140.087 131.745L140.075 131.984C138.863 131.92 137.646 131.859 136.426 131.8L136.444 131.441C137.416 131.488 138.386 131.536 139.353 131.586L139.365 131.348ZM145.636 131.688C146.056 131.712 146.474 131.737 146.892 131.761L146.877 132.012C147.712 132.064 148.543 132.117 149.37 132.173L149.386 131.913C150.654 131.992 151.913 132.075 153.16 132.16L153.136 132.519C152.041 132.444 150.938 132.372 149.827 132.302L149.809 132.563C148.601 132.481 147.383 132.403 146.157 132.328L146.172 132.08C145.987 132.069 145.801 132.058 145.616 132.047L145.636 131.688ZM158.172 132.525C160.302 132.691 162.392 132.868 164.433 133.058L164.4 133.417C163.209 133.306 162.002 133.199 160.78 133.097L160.747 133.438C158.765 133.251 156.738 133.078 154.677 132.917L154.705 132.558C155.864 132.648 157.012 132.743 158.148 132.841L158.172 132.525ZM169.433 133.563C170.697 133.701 171.938 133.845 173.154 133.996L173.109 134.353C171.896 134.203 170.657 134.059 169.394 133.921L169.433 133.563ZM169.208 134.364C168.027 134.214 166.823 134.072 165.598 133.935L165.637 133.578C166.864 133.714 168.07 133.857 169.253 134.007L169.208 134.364ZM175.673 134.324C176.086 134.38 176.496 134.438 176.902 134.496L176.851 134.852C176.446 134.794 176.036 134.737 175.624 134.681L175.673 134.324ZM172.832 134.856C172.438 134.799 172.041 134.743 171.642 134.687L171.691 134.33C172.092 134.386 172.489 134.443 172.884 134.5L172.832 134.856ZM178.824 135.849C177.67 135.631 176.479 135.424 175.253 135.227L175.31 134.871C176.539 135.069 177.734 135.277 178.891 135.495L178.824 135.849ZM179.401 134.872C180.674 135.073 181.908 135.284 183.099 135.506L183.033 135.86C181.846 135.639 180.615 135.428 179.345 135.227L179.401 134.872ZM189.445 138.553C187.695 137.938 185.737 137.376 183.598 136.863L183.682 136.513C185.83 137.028 187.8 137.593 189.564 138.214L189.445 138.553ZM188.041 136.552C190.262 137.087 192.273 137.674 194.04 138.321L193.917 138.659C192.165 138.018 190.168 137.434 187.957 136.902L188.041 136.552ZM196.838 142.548C196.053 141.811 195.062 141.121 193.88 140.476L194.053 140.16C195.254 140.816 196.272 141.522 197.084 142.286L196.838 142.548ZM198.648 140.491C199.872 141.258 200.832 142.096 201.488 143.015L201.195 143.224C200.574 142.355 199.654 141.547 198.457 140.796L198.648 140.491ZM198.555 144.907C198.481 144.733 198.398 144.562 198.305 144.392L198.621 144.219C198.719 144.399 198.808 144.581 198.886 144.767C198.981 144.99 199.037 145.214 199.054 145.438L198.695 145.465C198.681 145.283 198.636 145.097 198.555 144.907ZM202.457 145.379C202.486 145.595 202.501 145.814 202.501 146.037C202.501 146.25 202.483 146.461 202.446 146.67L202.091 146.608C202.124 146.419 202.141 146.229 202.141 146.037C202.141 145.83 202.127 145.627 202.101 145.427L202.457 145.379ZM194.544 149.157C195.937 148.555 196.995 147.947 197.696 147.331L197.934 147.602C197.191 148.253 196.094 148.879 194.687 149.487L194.544 149.157ZM201.308 148.909C200.614 149.716 199.629 150.483 198.387 151.217L198.204 150.907C199.426 150.185 200.375 149.441 201.035 148.674L201.308 148.909ZM184.17 152.299C186.32 151.794 188.266 151.284 189.986 150.769L190.089 151.114C188.361 151.632 186.407 152.143 184.252 152.65L184.17 152.299ZM193.898 153.333C192.162 154.008 190.19 154.66 188.007 155.29L187.907 154.944C190.083 154.316 192.044 153.668 193.767 152.997L193.898 153.333ZM175.913 154.047C177.114 153.815 178.277 153.582 179.401 153.349L179.474 153.702C178.349 153.935 177.184 154.168 175.981 154.4L175.913 154.047ZM172.255 154.733C172.673 154.657 173.087 154.581 173.498 154.505L173.564 154.859C173.34 154.9 173.115 154.942 172.889 154.983C172.7 155.018 172.51 155.053 172.32 155.087L172.255 154.733ZM166.343 155.772C167.563 155.565 168.757 155.358 169.924 155.152L169.987 155.506C168.819 155.713 167.624 155.92 166.404 156.127L166.343 155.772ZM183.213 156.562C182.029 156.853 180.8 157.139 179.529 157.422L179.451 157.071C180.72 156.788 181.946 156.503 183.127 156.213L183.213 156.562ZM155.505 157.531C157.572 157.207 159.591 156.886 161.556 156.567L161.614 156.922C159.648 157.242 157.628 157.563 155.56 157.886L155.505 157.531ZM177.153 157.936C176.76 158.019 176.363 158.102 175.963 158.184L175.89 157.831C176.29 157.749 176.686 157.667 177.078 157.584L177.153 157.936ZM147.138 158.815C148.365 158.63 149.579 158.445 150.779 158.261L150.834 158.617C149.633 158.801 148.419 158.985 147.192 159.171L147.138 158.815ZM173.52 158.674C172.326 158.908 171.102 159.14 169.853 159.37L169.788 159.016C171.036 158.786 172.258 158.555 173.451 158.321L173.52 158.674ZM143.568 159.353L144.752 159.175L144.806 159.531L143.621 159.709L143.568 159.353ZM137.544 160.252C138.765 160.07 139.976 159.89 141.178 159.71L141.231 160.066C140.029 160.246 138.818 160.427 137.597 160.608L137.544 160.252ZM164.991 160.234C163.015 160.573 160.985 160.909 158.907 161.242L158.85 160.886C160.927 160.554 162.956 160.218 164.93 159.879L164.991 160.234ZM126.738 161.862C128.767 161.559 130.78 161.259 132.772 160.962L132.825 161.318C130.833 161.615 128.82 161.915 126.791 162.218L126.738 161.862ZM153.952 162.017C152.762 162.2 151.558 162.381 150.342 162.562L150.289 162.206C151.505 162.025 152.708 161.844 153.898 161.661L153.952 162.017ZM147.893 162.924C147.482 162.984 147.07 163.045 146.657 163.105L146.605 162.748C147.018 162.688 147.43 162.628 147.841 162.568L147.893 162.924ZM118.363 163.125C119.57 162.941 120.773 162.759 121.971 162.578L122.025 162.934C120.827 163.115 119.624 163.297 118.417 163.481L118.363 163.125ZM144.176 163.463C142.975 163.636 141.765 163.808 140.545 163.98L140.495 163.623C141.714 163.451 142.924 163.279 144.125 163.107L144.176 163.463ZM114.761 163.676C115.159 163.615 115.556 163.554 115.953 163.493L116.008 163.849C115.611 163.909 115.214 163.97 114.816 164.032L114.761 163.676ZM108.774 164.606C109.975 164.417 111.174 164.23 112.371 164.045L112.426 164.401C111.23 164.586 110.031 164.773 108.83 164.962L108.774 164.606ZM135.622 164.668C133.606 164.948 131.57 165.228 129.518 165.508L129.469 165.152C131.521 164.871 133.557 164.591 135.572 164.312L135.622 164.668ZM97.9916 166.342C99.9866 166.012 101.982 165.688 103.976 165.368L104.033 165.723C102.04 166.043 100.045 166.368 98.0503 166.697L97.9916 166.342ZM124.59 166.18L120.932 166.678L120.883 166.321L124.542 165.824L124.59 166.18ZM118.485 167.011L117.258 167.178L117.21 166.821L118.437 166.654L118.485 167.011ZM89.6132 167.761C90.8077 167.553 92.0042 167.348 93.2018 167.144L93.2621 167.499C92.0648 167.703 90.8688 167.908 89.6748 168.115L89.6132 167.761ZM114.799 167.514C113.577 167.681 112.352 167.849 111.126 168.017L111.077 167.661C112.303 167.492 113.528 167.324 114.75 167.157L114.799 167.514ZM87.0934 168.202L87.2269 168.178L87.2894 168.533C86.8924 168.603 86.4956 168.673 86.0991 168.744L86.036 168.389C86.3883 168.327 86.7408 168.264 87.0934 168.202ZM106.23 168.694C104.189 168.979 102.145 169.265 100.103 169.556L100.052 169.199C102.095 168.909 104.139 168.622 106.18 168.338L106.23 168.694ZM80.0542 169.476C81.2473 169.255 82.4443 169.035 83.6444 168.818L83.7085 169.172C82.5089 169.389 81.3125 169.609 80.12 169.83L80.0542 169.476ZM95.2094 170.258C93.9854 170.436 92.7627 170.615 91.5421 170.796L91.4894 170.439C92.7104 170.259 93.9334 170.08 95.1577 169.902L95.2094 170.258ZM69.3294 171.558C71.3047 171.157 73.2975 170.762 75.3043 170.375L75.3725 170.729C73.3668 171.116 71.3752 171.51 69.4011 171.911L69.3294 171.558ZM89.0886 171.161C88.6802 171.222 88.2721 171.283 87.8644 171.345L87.8106 170.989C88.2185 170.927 88.6267 170.866 89.0352 170.805L89.0886 171.161ZM85.4217 171.717C84.2026 171.903 82.9867 172.092 81.775 172.282L81.7191 171.927C82.9313 171.736 84.1476 171.548 85.3672 171.361L85.4217 171.717ZM61.0178 173.319C62.2077 173.056 63.4064 172.796 64.6128 172.539L64.6878 172.891C63.4822 173.148 62.2844 173.408 61.0954 173.67L61.0178 173.319ZM76.8664 173.067C74.8266 173.4 72.8015 173.738 70.7948 174.082L70.7339 173.727C72.7417 173.383 74.7678 173.045 76.8086 172.712L76.8664 173.067ZM57.4725 174.117C57.8633 174.027 58.2552 173.938 58.6482 173.849L58.7277 174.2C58.3351 174.289 57.9436 174.378 57.5531 174.468L57.4725 174.117ZM65.8948 174.941C64.6801 175.16 63.4735 175.38 62.2759 175.604L62.2099 175.25C63.4084 175.026 64.6157 174.805 65.8311 174.587L65.8948 174.941ZM51.5598 175.523C52.7418 175.232 53.9357 174.944 55.1405 174.66L55.2231 175.01C54.0195 175.294 52.8268 175.582 51.646 175.873L51.5598 175.523ZM59.8369 176.065C59.4263 176.143 59.0168 176.222 58.6085 176.302L58.5399 175.948C58.9485 175.869 59.3582 175.79 59.7691 175.711L59.8369 176.065ZM56.1734 176.781C54.9632 177.023 53.7643 177.268 52.5777 177.517L52.5039 177.164C53.6917 176.916 54.8916 176.671 56.1028 176.428L56.1734 176.781ZM40.9917 178.326C42.9107 177.776 44.8747 177.239 46.8787 176.713L46.9701 177.062C44.9684 177.587 43.007 178.123 41.0908 178.672L40.9917 178.326ZM47.7046 178.571C45.6689 179.027 43.6757 179.493 41.7304 179.971L41.6445 179.621C43.5924 179.143 45.588 178.676 47.626 178.22L47.7046 178.571ZM32.8632 180.819C34.0176 180.438 35.1943 180.063 36.3917 179.693L36.498 180.037C35.3026 180.406 34.1282 180.781 32.9759 181.161L32.8632 180.819ZM36.9032 181.208C35.7048 181.529 34.5281 181.854 33.3745 182.185L33.2752 181.839C34.431 181.508 35.6097 181.181 36.8101 180.86L36.9032 181.208ZM29.4675 181.978C29.8371 181.848 30.2094 181.718 30.5841 181.588L30.7016 181.929C30.3277 182.058 29.9563 182.188 29.5875 182.318L29.4675 181.978ZM30.9526 182.899C30.555 183.019 30.1604 183.14 29.7689 183.262L29.6621 182.918C30.0545 182.796 30.45 182.675 30.8484 182.554L30.9526 182.899ZM23.7422 184.14C24.8497 183.692 25.9878 183.251 27.1549 182.817L27.2804 183.154C26.1164 183.588 24.9814 184.027 23.8772 184.474L23.7422 184.14ZM27.4579 184C26.2439 184.399 25.0632 184.805 23.9179 185.218L23.7956 184.88C24.9445 184.465 26.1285 184.058 27.3456 183.658L27.4579 184ZM13.8685 188.799C15.5442 187.86 17.3502 186.949 19.2743 186.065L19.4246 186.392C18.0646 187.017 16.7647 187.655 15.529 188.307C16.7094 187.738 17.9524 187.182 19.2539 186.64L19.3925 186.972C17.3797 187.811 15.5098 188.68 13.7973 189.581L13.6297 189.262C13.7574 189.195 13.886 189.128 14.0154 189.061L13.8685 188.799ZM6.80306 193.583C7.71419 192.813 8.70838 192.061 9.78043 191.325L9.98423 191.621C9.80179 191.747 9.62167 191.872 9.4439 191.999L9.52585 192.119C8.44071 192.856 7.457 193.613 6.58107 194.389L6.34222 194.12C6.51463 193.967 6.69107 193.815 6.87148 193.664L6.80306 193.583ZM4.17107 196.111C4.44954 195.803 4.74094 195.497 5.04499 195.193L5.29933 195.448C5.12624 195.621 4.95738 195.794 4.79282 195.968L4.89438 196.059C4.60462 196.383 4.33304 196.71 4.08005 197.04L3.79424 196.822C3.95067 196.617 4.1139 196.414 4.2838 196.213L4.17107 196.111ZM0.889215 201.223C1.32645 200.117 1.91968 199.042 2.65792 197.996L2.95203 198.204C2.78793 198.436 2.63126 198.67 2.48215 198.905L2.78808 199.063C2.21317 200.178 1.84137 201.331 1.6859 202.524L1.32893 202.477C1.48296 201.296 1.84154 200.154 2.38978 199.052C1.9226 199.807 1.53292 200.574 1.22399 201.355L0.889215 201.223ZM1.41708 211.91C0.487877 209.867 0.0271735 207.899 0 206.004L0.359963 205.998C0.386333 207.838 0.833311 209.757 1.74478 211.761L1.41708 211.91ZM2.18212 207.313C2.72645 208.995 3.66319 210.756 5.02907 212.601L4.7397 212.816C3.35598 210.946 2.39843 209.15 1.83962 207.424L2.18212 207.313ZM6.15771 218.851C5.33567 217.937 4.60026 217.037 3.94891 216.151L4.23903 215.938C4.8827 216.814 5.6105 217.705 6.42539 218.611L6.15771 218.851ZM8.30427 216.366C9.0973 217.164 9.96503 217.975 10.9097 218.801L10.6728 219.072C9.7224 218.241 8.8485 217.424 8.04902 216.62L8.30427 216.366ZM8.39516 221.166C8.23372 221.01 8.07476 220.854 7.91825 220.698L8.172 220.443C8.32739 220.597 8.48524 220.752 8.64558 220.908C8.78309 221.041 8.92136 221.173 9.06037 221.304L8.81312 221.566C8.67304 221.434 8.53372 221.3 8.39516 221.166ZM12.9023 220.472C13.077 220.613 13.2539 220.754 13.4329 220.896C13.5759 221.009 13.7195 221.121 13.8637 221.233L13.6433 221.517C13.4981 221.405 13.3535 221.292 13.2096 221.178C13.0297 221.036 12.8519 220.894 12.6764 220.752L12.9023 220.472ZM15.6221 222.538C16.5129 223.172 17.4243 223.78 18.3548 224.364L18.1636 224.669C17.2272 224.081 16.3101 223.469 15.4134 222.831L15.6221 222.538ZM13.2324 225.272C12.3066 224.582 11.4052 223.863 10.5297 223.112L10.7642 222.838C11.6331 223.584 12.5281 224.298 13.4474 224.983L13.2324 225.272ZM22.1519 226.555C23.7541 227.406 25.4032 228.193 27.0934 228.92L26.9511 229.251C25.2523 228.52 23.5944 227.729 21.9832 226.873L22.1519 226.555ZM141.07 226.864L141.176 227.208L141.174 227.209L141.172 227.21L141.17 227.21L141.168 227.211L141.145 227.218L141.051 227.248C140.969 227.274 140.846 227.313 140.684 227.363L140.577 227.02C140.586 227.017 140.594 227.014 140.603 227.012L140.599 226.999C140.755 226.955 140.873 226.922 140.952 226.899L141.041 226.873L141.063 226.866L141.064 226.866L141.065 226.866L141.068 226.865L141.07 226.864ZM22.1011 230.639C20.3624 229.789 18.6767 228.865 17.0513 227.861L17.2404 227.555C18.8553 228.552 20.5305 229.471 22.2592 230.316L22.1011 230.639ZM135.241 228.417C136.511 228.099 137.593 227.817 138.468 227.584L138.561 227.932C138.521 227.942 138.48 227.953 138.439 227.964L138.46 228.036C137.554 228.303 136.436 228.625 135.126 228.989L135.029 228.643C135.114 228.619 135.197 228.596 135.28 228.573L135.241 228.417ZM125.637 230.639C127.582 230.224 129.378 229.82 131.005 229.441L131.087 229.792C130.935 229.827 130.783 229.862 130.629 229.898L130.702 230.18C129.004 230.622 127.128 231.094 125.098 231.581L125.014 231.231C126.113 230.967 127.167 230.708 128.172 230.455C127.382 230.631 126.561 230.81 125.712 230.991L125.637 230.639ZM31.1741 230.535C32.2003 230.907 33.2391 231.26 34.2892 231.594L34.1801 231.937C33.1255 231.602 32.0822 231.247 31.0514 230.873L31.1741 230.535ZM118.091 232.149C119.203 231.941 120.284 231.732 121.333 231.524L121.403 231.877C120.353 232.086 119.27 232.294 118.158 232.502L118.091 232.149ZM29.558 233.738C28.4617 233.355 27.3801 232.948 26.3149 232.517L26.45 232.183C27.5097 232.612 28.5858 233.017 29.6769 233.399L29.558 233.738ZM36.3873 232.232C36.7374 232.334 37.0885 232.434 37.4408 232.531L37.3445 232.878C36.9908 232.78 36.6383 232.68 36.2869 232.578L36.3873 232.232ZM120.623 232.62C119.527 232.866 118.398 233.113 117.237 233.36L117.162 233.008C118.321 232.761 119.449 232.514 120.544 232.269L120.623 232.62ZM114.835 232.739C115.197 232.675 115.556 232.612 115.912 232.548L115.976 232.902C115.619 232.966 115.26 233.03 114.898 233.094L114.835 232.739ZM39.5673 233.095C40.6254 233.362 41.6924 233.612 42.7675 233.847L42.6908 234.199C41.6121 233.963 40.5411 233.712 39.4792 233.444L39.5673 233.095ZM109.425 233.638C110.529 233.465 111.614 233.289 112.679 233.11L112.738 233.465C111.673 233.644 110.586 233.821 109.481 233.994L109.425 233.638ZM114.991 233.83C114.61 233.908 114.227 233.986 113.841 234.063L113.77 233.71C114.156 233.633 114.538 233.555 114.918 233.477L114.991 233.83ZM32.8391 234.805C32.4704 234.694 32.1032 234.581 31.7375 234.465L31.8463 234.122C32.2104 234.237 32.5759 234.35 32.943 234.461L32.8391 234.805ZM111.607 234.504C110.493 234.719 109.357 234.933 108.202 235.142L108.138 234.788C109.292 234.579 110.426 234.366 111.539 234.15L111.607 234.504ZM99.6273 235C101.479 234.776 103.297 234.537 105.075 234.286L105.125 234.642C103.345 234.894 101.525 235.133 99.6705 235.357L99.6273 235ZM47.0763 234.694C48.8692 235.01 50.6796 235.284 52.5028 235.521L52.4565 235.878C50.6281 235.641 48.8123 235.365 47.0138 235.048L47.0763 234.694ZM38.4106 236.281C37.2838 236.021 36.1675 235.742 35.0628 235.442L35.1572 235.094C36.2572 235.393 37.3691 235.671 38.4915 235.93L38.4106 236.281ZM91.9659 235.811C93.0718 235.711 94.1694 235.604 95.2575 235.491L95.2947 235.849C94.2051 235.962 93.1059 236.069 91.9984 236.17L91.9659 235.811ZM103.661 235.929C101.806 236.236 99.9091 236.53 97.9785 236.808L97.9272 236.452C99.8552 236.174 101.749 235.88 103.603 235.574L103.661 235.929ZM88.6891 236.086C89.0556 236.058 89.4214 236.029 89.7863 235.999L89.8156 236.358C89.4501 236.388 89.0838 236.417 88.7168 236.445L88.6891 236.086ZM56.8686 236.015C57.9601 236.12 59.0548 236.213 60.1518 236.294L60.1252 236.653C59.0257 236.572 57.9283 236.479 56.8339 236.373L56.8686 236.015ZM83.2054 236.443C84.3064 236.384 85.4025 236.318 86.4926 236.245L86.5168 236.604C85.425 236.678 84.3272 236.744 83.2244 236.802L83.2054 236.443ZM62.3431 236.44C62.7083 236.462 63.0738 236.482 63.4393 236.502L63.4204 236.861C63.0541 236.842 62.6878 236.821 62.3217 236.8L62.3431 236.44ZM65.634 236.602C66.7319 236.645 67.8303 236.677 68.9284 236.698L68.9213 237.058C67.821 237.037 66.7202 237.005 65.62 236.962L65.634 236.602ZM73.323 236.731C75.1604 236.723 76.9929 236.688 78.8158 236.63L78.8274 236.989C77.0013 237.048 75.1654 237.083 73.3245 237.091L73.323 236.731ZM48.6174 238.093C46.7002 237.845 44.8005 237.552 42.9239 237.21L42.9884 236.856C44.8585 237.197 46.7521 237.489 48.6635 237.736L48.6174 238.093ZM93.4102 237.426C92.2765 237.569 91.1332 237.705 89.9818 237.834L89.9417 237.477C91.0914 237.348 92.233 237.211 93.3652 237.068L93.4102 237.426ZM87.6932 238.08C87.313 238.119 86.9321 238.157 86.5504 238.195L86.5154 237.836C86.8965 237.799 87.2768 237.761 87.6564 237.722L87.6932 238.08ZM84.2518 238.408C83.1109 238.508 81.9642 238.599 80.8129 238.682L80.7871 238.323C81.9364 238.24 83.0813 238.149 84.2204 238.049L84.2518 238.408ZM56.6464 238.87C55.4931 238.793 54.3432 238.703 53.1978 238.597L53.2307 238.239C54.3729 238.344 55.5198 238.434 56.6702 238.51L56.6464 238.87ZM76.2139 238.963C74.3021 239.058 72.3821 239.126 70.4591 239.164L70.4519 238.804C72.3712 238.766 74.2876 238.698 76.196 238.603L76.2139 238.963ZM60.0948 239.057C59.7107 239.04 59.327 239.023 58.9435 239.003L58.9616 238.644C59.3441 238.663 59.727 238.681 60.1101 238.697L60.0948 239.057ZM65.8519 239.196C64.7 239.188 63.5484 239.169 62.3983 239.137L62.4082 238.777C63.5557 238.809 64.7047 238.828 65.8543 238.836L65.8519 239.196Z" fill="white"/>
<path d="M140.462 225.479L116.52 255.237L147.573 240.534L148.732 239.945L258.788 183.999L122.394 250.494L141.514 227.287L258.788 183.999L145.287 223.968L143.933 224.445L140.462 225.479Z" fill="white"/>
<path d="M258.788 183.999L122.027 206.123L142.025 219.498L142.562 219.503L258.788 183.999L141.42 215.895L124.725 207.347L258.788 183.999Z" fill="white"/>
<path d="M142.025 219.498L143.933 224.445L145.287 223.968L142.562 219.503L142.025 219.498Z" fill="white"/>
<path d="M147.573 240.534L151.366 244.166L258.788 183.999L151.356 242.967L148.732 239.945L147.573 240.534Z" fill="white"/>
<path d="M124.725 207.347L141.42 215.895L258.788 183.999L124.725 207.347Z" fill="white"/>
<path d="M258.788 183.999L141.514 227.287L122.394 250.494L258.788 183.999Z" fill="white"/>
<path d="M258.788 183.999L148.732 239.945L151.356 242.967L258.788 183.999Z" fill="white"/>
<path fill-rule="evenodd" clip-rule="evenodd" d="M257.694 184.328L257.672 184.332L257.624 184.036L258.762 183.852L258.764 183.851L258.861 184.13L258.86 184.131L258.856 184.133L257.966 184.632L257.946 184.596L257.938 184.599L257.931 184.584L257.717 184.688L257.585 184.419L257.769 184.329L257.696 184.342L257.694 184.328ZM255.393 184.701L253.113 185.069L253.065 184.773L255.345 184.404L255.393 184.701ZM253.943 185.471L253.937 185.473L253.858 185.184L255.814 184.652L255.846 184.768L255.876 184.866L255.9 184.857L256 185.14L255.891 185.178L255.908 185.222L253.953 185.944L253.849 185.662L253.986 185.612L253.943 185.471ZM247.389 185.832L252.059 185.019L252.11 185.315L244.29 186.676L244.26 186.502L239.437 187.282L239.389 186.986L247.367 185.695L247.389 185.832ZM254.284 186.457L254.27 186.464L254.134 186.197L255.968 185.264L256.013 185.351L256.03 185.342L256.174 185.605L256.162 185.611L256.175 185.634L254.385 186.637L254.284 186.457ZM249.046 186.802L242.2 188.663L242.121 188.373L248.968 186.513L249.046 186.802ZM249.146 187.101L242.366 189.172L242.279 188.886L249.058 186.815L249.146 187.101ZM225.246 189.689L233.067 188.327L233.118 188.622L225.298 189.984L225.246 189.689ZM228.041 189.125L220.063 190.416L220.015 190.12L227.993 188.829L228.041 189.125ZM249.013 187.601L249.379 187.472L249.279 187.189L242.659 189.52L242.744 189.762L242.122 189.991L242.226 190.273L249.067 187.747L249.013 187.601ZM243.946 191.068L251.902 187.189L252.034 187.459L249.607 188.642L249.684 188.795L243.264 192.059L243.128 191.791L244.066 191.315L243.946 191.068ZM214.365 191.338L212.085 191.706L212.037 191.41L214.317 191.042L214.365 191.338ZM217.426 191.051L219.66 190.661L219.712 190.957L217.478 191.346L217.426 191.051ZM209.806 192.075L207.527 192.444L207.479 192.148L209.758 191.779L209.806 192.075ZM212.957 191.829L215.192 191.44L215.243 191.735L213.009 192.124L212.957 191.829ZM249.866 189.067L249.907 189.045L249.763 188.782L243.496 192.222L243.568 192.352L243.496 192.392L243.643 192.654L249.909 189.144L249.866 189.067ZM201.828 193.366L193.85 194.656L193.803 194.36L201.78 193.07L201.828 193.366ZM199.551 194.164L207.371 192.802L207.423 193.097L199.603 194.459L199.551 194.164ZM232.419 191.321L225.573 193.181L225.494 192.892L232.341 191.031L232.419 191.321ZM232.681 192.131L225.901 194.202L225.813 193.915L232.593 191.844L232.681 192.131ZM182.454 196.5L174.476 197.791L174.428 197.494L182.406 196.204L182.454 196.5ZM180.559 197.471L188.379 196.109L188.431 196.405L180.61 197.767L180.559 197.471ZM233.3 193.134L226.679 195.465L226.579 195.182L233.2 192.851L233.3 193.134ZM220.683 194.51L218.726 195.042L218.648 194.752L220.604 194.221L220.683 194.51ZM168.778 198.712L166.498 199.081L166.451 198.785L168.73 198.416L168.778 198.712ZM232.453 193.88L225.612 196.405L225.508 196.124L232.349 193.598L232.453 193.88ZM164.219 199.45L161.94 199.819L161.892 199.522L164.171 199.154L164.219 199.45ZM172.739 198.833L174.973 198.444L175.024 198.74L172.79 199.129L172.739 198.833ZM216.77 195.573L214.814 196.105L214.736 195.815L216.692 195.284L216.77 195.573ZM168.27 199.611L170.504 199.222L170.556 199.518L168.321 199.907L168.27 199.611ZM156.241 200.74L148.264 202.031L148.216 201.735L156.194 200.444L156.241 200.74ZM221.058 195.681L219.121 196.273L219.033 195.986L220.971 195.395L221.058 195.681ZM154.864 201.946L162.684 200.584L162.735 200.88L154.915 202.242L154.864 201.946ZM209.924 197.434L203.077 199.294L202.999 199.005L209.845 197.144L209.924 197.434ZM217.184 196.865L215.247 197.457L215.159 197.17L217.096 196.578L217.184 196.865ZM136.867 203.875L128.889 205.165L128.841 204.869L136.819 203.579L136.867 203.875ZM221.95 197.131L220.058 197.797L219.958 197.514L221.85 196.848L221.95 197.131ZM234.093 196.721L227.673 199.984L227.537 199.717L233.957 196.453L234.093 196.721ZM224.623 200.488L232.58 196.609L232.711 196.879L224.755 200.758L224.623 200.488ZM135.872 205.254L143.692 203.892L143.743 204.187L135.923 205.549L135.872 205.254ZM210.404 198.936L203.624 201.007L203.537 200.72L210.317 198.649L210.404 198.936ZM220.726 198.209L218.771 198.93L218.667 198.649L220.622 197.927L220.726 198.209ZM218.166 198.463L216.275 199.129L216.175 198.846L218.067 198.18L218.166 198.463ZM122.428 206.211L123.191 206.087L123.143 205.791L121.627 206.036L122.444 206.582L122.611 206.333L122.428 206.211ZM234.575 197.46L234.688 197.398L234.543 197.135L228.276 200.575L228.42 200.836L228.278 200.916L228.425 201.177L234.691 197.668L234.575 197.46ZM216.817 199.652L214.862 200.373L214.758 200.092L216.713 199.37L216.817 199.652ZM128.051 206.616L130.286 206.227L130.337 206.522L128.103 206.911L128.051 206.616ZM123.611 207.002L124.61 207.671L124.444 207.92L123.444 207.251L123.611 207.002ZM193.297 201.952L186.45 203.813L186.372 203.524L193.218 201.663L193.297 201.952ZM125.817 207.005L125.868 207.301L125.193 207.418L125.211 207.428L125.074 207.695L124.258 207.277L125.817 207.005ZM211.545 200.794L204.924 203.126L204.825 202.843L211.446 200.511L211.545 200.794ZM209.976 202.177L203.135 204.702L203.031 204.421L209.872 201.895L209.976 202.177ZM130.083 210.259L127.161 208.763L127.298 208.496L130.22 209.992L130.083 210.259ZM193.939 203.966L187.159 206.037L187.072 205.75L193.851 203.679L193.939 203.966ZM181.56 205.142L179.604 205.674L179.525 205.384L181.481 204.853L181.56 205.142ZM127.11 209.342L130.61 211.683L130.443 211.932L126.943 209.592L127.11 209.342ZM223.087 202.315L221.253 203.248L221.117 202.98L222.951 202.048L223.087 202.315ZM177.648 206.205L175.692 206.737L175.613 206.447L177.569 205.916L177.648 206.205ZM216.667 204.367L218.94 203.259L219.072 203.529L216.799 204.637L216.667 204.367ZM223.944 203.295L222.154 204.278L222.01 204.015L223.8 203.032L223.944 203.295ZM223.949 203.684L222.158 204.687L222.012 204.425L223.802 203.423L223.949 203.684ZM219.419 204.18L217.585 205.113L217.449 204.845L219.283 203.913L219.419 204.18ZM170.801 208.066L163.955 209.926L163.876 209.637L170.723 207.776L170.801 208.066ZM195.466 206.457L188.845 208.788L188.745 208.505L195.366 206.174L195.466 206.457ZM182.316 207.516L180.379 208.108L180.292 207.821L182.229 207.229L182.316 207.516ZM220.363 205.261L218.573 206.244L218.428 205.981L220.219 204.998L220.363 205.261ZM212.121 206.584L214.394 205.475L214.525 205.745L212.252 206.853L212.121 206.584ZM178.442 208.699L176.505 209.291L176.418 209.004L178.355 208.412L178.442 208.699ZM137.178 213.892L134.257 212.396L134.393 212.129L137.315 213.625L137.178 213.892ZM220.368 205.69L218.578 206.693L218.431 206.431L220.221 205.428L220.368 205.69ZM193.362 208.309L186.521 210.834L186.417 210.553L193.258 208.028L193.362 208.309ZM212.999 207.444L206.579 210.707L206.443 210.44L212.863 207.176L212.999 207.444ZM171.662 210.77L164.883 212.841L164.795 212.555L171.575 210.483L171.662 210.77ZM154.174 212.584L147.328 214.445L147.249 214.155L154.096 212.295L154.174 212.584ZM184.116 210.454L182.224 211.12L182.125 210.837L184.016 210.171L184.116 210.454ZM214.097 208.701L207.83 212.14L207.685 211.877L213.952 208.438L214.097 208.701ZM198.481 213.233L206.438 209.354L206.569 209.624L198.613 213.503L198.481 213.233ZM140.1 215.387L139.265 214.96L139.402 214.693L140.237 215.12L140.1 215.387ZM135.609 215.026L139.109 217.367L138.942 217.616L135.442 215.276L135.609 215.026ZM180.333 211.786L178.441 212.452L178.341 212.169L180.233 211.503L180.333 211.786ZM214.102 209.2L207.835 212.709L207.689 212.448L213.955 208.938L214.102 209.2ZM140.935 215.815L141.071 215.548L141.437 215.735L142.359 215.484L142.438 215.774L141.404 216.055L140.935 215.815ZM181.635 212.638L179.68 213.36L179.576 213.078L181.531 212.357L181.635 212.638ZM173.712 214.117L167.091 216.449L166.991 216.166L173.612 213.834L173.712 214.117ZM155.197 215.8L148.417 217.871L148.33 217.584L155.11 215.513L155.197 215.8ZM177.726 214.081L175.771 214.802L175.667 214.521L177.622 213.8L177.726 214.081ZM170.885 216.606L164.044 219.131L163.94 218.85L170.781 216.325L170.885 216.606ZM142.107 219.372L142.107 219.349L142.201 219.349L142.199 219.533L142.212 219.568L142.199 219.573L142.198 219.649L142.104 219.649L142.104 219.609L142.037 219.635L142.037 219.648L142.023 219.648L142.023 219.64L141.933 219.676L141.902 219.596L141.441 219.288L141.608 219.039L142.107 219.372ZM142.038 219.493L142.106 219.467L142.107 219.376L142.038 219.477L142.038 219.493ZM143.575 219.35L142.606 219.646L142.602 219.632L142.502 219.693L142.434 219.581L142.495 219.544L142.496 219.352L142.523 219.352L142.523 219.358L143.487 219.063L143.575 219.35ZM142.523 219.375L142.522 219.528L142.549 219.511L142.549 219.46L142.523 219.375ZM142.427 219.652L142.332 219.651L142.335 219.351L142.429 219.352L142.427 219.652ZM197.408 215.369L190.988 218.633L190.852 218.365L197.272 215.102L197.408 215.369ZM143.32 221.032L142.843 220.251L143.099 220.094L143.576 220.876L143.32 221.032ZM142.505 221.16L142.171 220.294L142.451 220.186L142.785 221.052L142.505 221.16ZM157.632 219.78L151.011 222.111L150.912 221.828L157.533 219.497L157.632 219.78ZM198.877 217.054L192.61 220.494L192.466 220.231L198.733 216.791L198.877 217.054ZM198.884 217.723L192.617 221.233L192.471 220.971L198.737 217.461L198.884 217.723ZM144.477 222.93L144.001 222.148L144.257 221.992L144.734 222.774L144.477 222.93ZM179.159 222.653L187.115 218.774L187.246 219.044L179.29 222.923L179.159 222.653ZM143.316 223.262L142.982 222.396L143.262 222.288L143.596 223.154L143.316 223.262ZM154.271 222.739L147.43 225.264L147.326 224.982L154.167 222.457L154.271 222.739ZM144.954 223.711L144.818 223.488L145.074 223.332L145.21 223.555L144.954 223.711ZM146.282 223.776L145.303 224.121L145.255 223.987L145.193 224.025L145.235 224.145L145.167 224.169L145.068 223.886L145.135 223.862L145.148 223.899L145.211 223.861L145.203 223.838L145.309 223.801L145.346 223.778L145.351 223.786L146.183 223.493L146.282 223.776ZM143.65 224.128L143.555 223.88L143.834 223.772L143.93 224.02L143.65 224.128ZM144.998 224.229L144.761 224.312L144.661 224.029L144.898 223.946L144.998 224.229ZM186.402 220.964L184.568 221.896L184.432 221.629L186.266 220.696L186.402 220.964ZM144.423 224.431L144.186 224.515L144.086 224.232L144.323 224.148L144.423 224.431ZM143.793 224.499L143.745 224.375L143.81 224.35L143.803 224.327L143.887 224.302L143.917 224.291L143.922 224.307L144.025 224.267L144.073 224.391L143.967 224.432L144.017 224.574L143.976 224.589L143.889 224.614L143.848 224.477L143.793 224.499ZM142.762 224.637L143.369 224.456L143.455 224.744L142.848 224.925L142.762 224.637ZM141.287 225.077L141.894 224.896L141.98 225.183L141.372 225.364L141.287 225.077ZM140.679 225.258L140.853 225.206L140.938 225.494L140.765 225.545L140.679 225.258ZM140.506 225.309L140.591 225.597L140.549 225.61L139.98 226.317L139.746 226.129L140.374 225.349L140.506 225.309ZM182.734 222.829L180.899 223.761L180.763 223.494L182.598 222.561L182.734 222.829ZM188.134 222.951L186.343 223.934L186.199 223.671L187.989 222.688L188.134 222.951ZM141.604 227.414L142.544 227.067L142.44 226.786L141.424 227.161L140.921 227.772L141.152 227.963L141.604 227.414ZM188.141 223.74L186.351 224.743L186.204 224.481L187.995 223.478L188.141 223.74ZM171.202 226.532L173.476 225.424L173.607 225.694L171.334 226.802L171.202 226.532ZM184.553 224.917L182.762 225.899L182.618 225.636L184.408 224.654L184.553 224.917ZM176.314 226.092L169.894 229.356L169.758 229.088L176.178 225.825L176.314 226.092ZM140.196 229.123L139.24 230.284L139.008 230.093L139.964 228.933L140.196 229.123ZM184.561 225.745L182.77 226.748L182.624 226.486L184.414 225.484L184.561 225.745ZM132.564 235.056L136.754 229.849L136.987 230.037L132.798 235.244L132.564 235.056ZM166.656 228.749L168.929 227.64L169.061 227.91L166.787 229.018L166.656 228.749ZM178.286 228.356L172.019 231.796L171.875 231.533L178.141 228.093L178.286 228.356ZM178.294 229.255L172.028 232.765L171.882 232.503L178.148 228.993L178.294 229.255ZM136.85 233.185L133.504 237.246L133.272 237.055L136.618 232.994L136.85 233.185ZM153.016 235.398L160.973 231.519L161.104 231.789L153.148 235.668L153.016 235.398ZM160.722 234.018L154.302 237.281L154.167 237.014L160.586 233.75L160.722 234.018ZM163.066 236.71L156.799 240.15L156.655 239.887L162.922 236.447L163.066 236.71ZM163.076 237.779L156.81 241.288L156.663 241.027L162.93 237.517L163.076 237.779ZM149.717 239.612L148.771 240.093L148.753 240.059L148.703 240.103L148.713 240.123L148.655 240.152L148.519 239.885L148.577 239.855L148.656 240.011L148.706 239.967L148.635 239.826L149.581 239.345L149.717 239.612ZM148.51 240.226L148.307 240.329L148.171 240.061L148.374 239.958L148.51 240.226ZM148.018 240.476L147.815 240.579L147.679 240.312L147.882 240.209L148.018 240.476ZM147.67 240.653L147.641 240.667L147.636 240.658L147.633 240.661L147.637 240.669L147.615 240.68L147.564 240.733L147.544 240.713L146.861 241.037L146.733 240.766L147.509 240.398L147.534 240.385L147.597 240.509L147.677 240.425L147.772 240.516L147.66 240.633L147.67 240.653ZM149.471 241.025L149.012 240.496L149.239 240.3L149.698 240.829L149.471 241.025ZM133.694 244.818L141.65 240.939L141.782 241.209L133.825 245.088L133.694 244.818ZM122.389 247.703L126.579 242.496L126.812 242.684L122.623 247.891L122.389 247.703ZM148.702 241.822L148.038 241.187L148.246 240.97L148.909 241.606L148.702 241.822ZM145.308 241.772L143.756 242.507L143.627 242.236L145.18 241.501L145.308 241.772ZM128.724 243.048L125.377 247.109L125.146 246.918L128.492 242.857L128.724 243.048ZM150.586 242.31L150.127 241.781L150.354 241.584L150.813 242.113L150.586 242.31ZM150.314 243.366L149.65 242.731L149.858 242.514L150.521 243.15L150.314 243.366ZM152.323 242.607L151.322 243.156L151.177 242.989L151.306 242.877L151.284 242.835L152.179 242.344L152.323 242.607ZM151.046 242.838L150.914 242.687L151.141 242.491L151.272 242.642L151.046 242.838ZM139.874 244.345L134.44 246.918L134.312 246.647L139.746 244.074L139.874 244.345ZM150.977 244.002L150.788 243.82L150.995 243.604L151.185 243.785L150.977 244.002ZM152.334 243.795L151.342 244.351L151.167 244.183L151.299 244.046L151.292 244.035L151.329 244.015L151.375 243.967L151.389 243.981L152.187 243.534L152.334 243.795ZM125.738 248.697L128.011 247.589L128.142 247.859L125.869 248.967L125.738 248.697ZM122.948 250.057L122.987 250.01L122.756 249.819L122.278 250.399L122.459 250.629L123.596 250.075L123.464 249.805L122.948 250.057ZM126.677 250.594L121.242 253.167L121.114 252.896L126.548 250.323L126.677 250.594ZM118.199 252.911L119.396 251.423L119.63 251.611L118.433 253.099L118.199 252.911ZM116.403 255.143L117.002 254.399L117.236 254.587L117.047 254.822L117.232 254.734L117.361 255.005L116.585 255.372L116.403 255.143Z" fill="white"/>
<path d="M64.1787 122.487C64.1787 122.625 63.9549 122.737 63.6787 122.737C63.4026 122.737 63.1787 122.625 63.1787 122.487C63.1787 122.349 63.4026 122.237 63.6787 122.237C63.9549 122.237 64.1787 122.349 64.1787 122.487Z" fill="white"/>
<path d="M132.44 231.523C132.394 231.393 132.568 231.213 132.828 231.121C133.088 231.029 133.337 231.06 133.383 231.19C133.429 231.321 133.255 231.501 132.994 231.592C132.734 231.684 132.486 231.653 132.44 231.523Z" fill="white"/>
<path d="M112.262 234.805C112.216 234.675 112.39 234.495 112.65 234.403C112.911 234.311 113.159 234.342 113.205 234.473C113.251 234.603 113.077 234.783 112.817 234.875C112.556 234.966 112.308 234.935 112.262 234.805Z" fill="white"/>
<path d="M67.1787 125.737C67.1787 126.013 66.9549 126.237 66.6787 126.237C66.4026 126.237 66.1787 126.013 66.1787 125.737C66.1787 125.461 66.4026 125.237 66.6787 125.237C66.9549 125.237 67.1787 125.461 67.1787 125.737Z" fill="white"/>
<path d="M128.53 229.455C128.438 229.195 128.575 228.909 128.835 228.818C129.095 228.726 129.381 228.862 129.473 229.123C129.565 229.383 129.428 229.669 129.167 229.761C128.907 229.852 128.622 229.716 128.53 229.455Z" fill="white"/>
<path d="M124.345 234.041C124.253 233.78 124.39 233.495 124.65 233.403C124.911 233.311 125.196 233.448 125.288 233.708C125.38 233.969 125.243 234.254 124.983 234.346C124.722 234.438 124.437 234.301 124.345 234.041Z" fill="white"/>
<path d="M96.1787 128.737C96.1787 129.013 95.9549 129.237 95.6787 129.237C95.4026 129.237 95.1787 129.013 95.1787 128.737C95.1787 128.461 95.4026 128.237 95.6787 128.237C95.9549 128.237 96.1787 128.461 96.1787 128.737Z" fill="white"/>
<path d="M56.1787 124.737C56.1787 125.013 55.9549 125.237 55.6787 125.237C55.4026 125.237 55.1787 125.013 55.1787 124.737C55.1787 124.461 55.4026 124.237 55.6787 124.237C55.9549 124.237 56.1787 124.461 56.1787 124.737Z" fill="white"/>
<path d="M139.236 226.741C139.145 226.48 139.281 226.195 139.542 226.103C139.802 226.011 140.088 226.148 140.179 226.408C140.271 226.669 140.135 226.954 139.874 227.046C139.614 227.138 139.328 227.001 139.236 226.741Z" fill="white"/>
<path d="M118.345 232.041C118.253 231.78 118.39 231.495 118.65 231.403C118.911 231.311 119.196 231.448 119.288 231.708C119.38 231.969 119.243 232.254 118.983 232.346C118.722 232.438 118.437 232.301 118.345 232.041Z" fill="white"/>
<path d="M60.5922 128.159C60.5085 128.333 60.1582 128.338 59.8097 128.171C59.4612 128.004 59.2466 127.727 59.3303 127.552C59.414 127.378 59.7643 127.373 60.1128 127.54C60.4613 127.707 60.6759 127.984 60.5922 128.159Z" fill="white"/>
<path d="M133.936 224.981C133.957 224.789 134.286 224.668 134.67 224.71C135.054 224.752 135.349 224.941 135.328 225.134C135.307 225.326 134.978 225.447 134.594 225.405C134.21 225.363 133.915 225.174 133.936 224.981Z" fill="white"/>
<path d="M57.1787 123.737C57.1787 124.013 56.9549 124.237 56.6787 124.237C56.4026 124.237 56.1787 124.013 56.1787 123.737C56.1787 123.461 56.4026 123.237 56.6787 123.237C56.9549 123.237 57.1787 123.461 57.1787 123.737Z" fill="white"/>
<path d="M60.1787 124.737C60.1787 125.013 59.9549 125.237 59.6787 125.237C59.4026 125.237 59.1787 125.013 59.1787 124.737C59.1787 124.461 59.4026 124.237 59.6787 124.237C59.9549 124.237 60.1787 124.461 60.1787 124.737Z" fill="white"/>
<path d="M135.464 228.071C135.372 227.81 135.509 227.525 135.769 227.433C136.03 227.341 136.315 227.478 136.407 227.738C136.499 227.999 136.362 228.284 136.102 228.376C135.841 228.468 135.556 228.331 135.464 228.071Z" fill="white"/>
<path d="M57.9037 125.737C57.9037 125.613 57.803 125.512 57.6787 125.512C57.5545 125.512 57.4537 125.613 57.4537 125.737C57.4537 125.861 57.5545 125.962 57.6787 125.962C57.803 125.962 57.9037 125.861 57.9037 125.737Z" fill="white"/>
<path d="M137.277 226.371C137.318 226.489 137.447 226.55 137.564 226.509C137.681 226.467 137.743 226.339 137.701 226.222C137.66 226.105 137.531 226.043 137.414 226.084C137.297 226.126 137.236 226.254 137.277 226.371Z" fill="white"/>
<path d="M122.254 229.599C122.295 229.716 122.423 229.777 122.541 229.736C122.658 229.695 122.719 229.566 122.678 229.449C122.637 229.332 122.508 229.27 122.391 229.312C122.274 229.353 122.212 229.482 122.254 229.599Z" fill="white"/>
<path d="M113.254 232.599C113.295 232.716 113.423 232.777 113.541 232.736C113.658 232.695 113.719 232.566 113.678 232.449C113.637 232.332 113.508 232.27 113.391 232.312C113.274 232.353 113.212 232.482 113.254 232.599Z" fill="white"/>
<path d="M54.6287 126.462C54.6287 126.338 54.528 126.237 54.4037 126.237C54.2795 126.237 54.1787 126.338 54.1787 126.462C54.1787 126.586 54.2795 126.687 54.4037 126.687C54.528 126.687 54.6287 126.586 54.6287 126.462Z" fill="white"/>
<path d="M140.125 224.599C140.166 224.716 140.294 224.777 140.412 224.736C140.529 224.695 140.59 224.566 140.549 224.449C140.508 224.332 140.379 224.27 140.262 224.312C140.145 224.353 140.083 224.482 140.125 224.599Z" fill="white"/>
<path d="M67.6287 132.462C67.6287 132.338 67.528 132.237 67.4037 132.237C67.2795 132.237 67.1787 132.338 67.1787 132.462C67.1787 132.586 67.2795 132.687 67.4037 132.687C67.528 132.687 67.6287 132.586 67.6287 132.462Z" fill="white"/>
<path d="M78.8537 130.574C78.8537 130.388 78.7026 130.237 78.5162 130.237C78.3298 130.237 78.1787 130.388 78.1787 130.574C78.1787 130.761 78.3298 130.912 78.5162 130.912C78.7026 130.912 78.8537 130.761 78.8537 130.574Z" fill="white"/>
<path d="M99.8537 129.574C99.8537 129.388 99.7026 129.237 99.5162 129.237C99.3298 129.237 99.1787 129.388 99.1787 129.574C99.1787 129.761 99.3298 129.912 99.5162 129.912C99.7026 129.912 99.8537 129.761 99.8537 129.574Z" fill="white"/>
<path d="M81.6287 131.462C81.6287 131.338 81.528 131.237 81.4037 131.237C81.2795 131.237 81.1787 131.338 81.1787 131.462C81.1787 131.586 81.2795 131.687 81.4037 131.687C81.528 131.687 81.6287 131.586 81.6287 131.462Z" fill="white"/>
<path d="M68.6287 125.462C68.6287 125.338 68.528 125.237 68.4037 125.237C68.2795 125.237 68.1787 125.338 68.1787 125.462C68.1787 125.586 68.2795 125.687 68.4037 125.687C68.528 125.687 68.6287 125.586 68.6287 125.462Z" fill="white"/>
<path d="M127.254 230.197C127.295 230.314 127.423 230.376 127.541 230.334C127.658 230.293 127.719 230.164 127.678 230.047C127.637 229.93 127.508 229.868 127.391 229.91C127.274 229.951 127.212 230.08 127.254 230.197Z" fill="white"/>
<path d="M131.254 232.599C131.295 232.716 131.423 232.777 131.541 232.736C131.658 232.695 131.719 232.566 131.678 232.449C131.637 232.332 131.508 232.27 131.391 232.312C131.274 232.353 131.212 232.482 131.254 232.599Z" fill="white"/>
<path d="M100.629 127.462C100.629 127.338 100.528 127.237 100.404 127.237C100.279 127.237 100.179 127.338 100.179 127.462C100.179 127.586 100.279 127.687 100.404 127.687C100.528 127.687 100.629 127.586 100.629 127.462Z" fill="white"/>
<path d="M119.629 130.462C119.629 130.338 119.528 130.237 119.404 130.237C119.279 130.237 119.179 130.338 119.179 130.462C119.179 130.586 119.279 130.687 119.404 130.687C119.528 130.687 119.629 130.586 119.629 130.462Z" fill="white"/>
<path d="M106.629 131.462C106.629 131.338 106.528 131.237 106.404 131.237C106.279 131.237 106.179 131.338 106.179 131.462C106.179 131.586 106.279 131.687 106.404 131.687C106.528 131.687 106.629 131.586 106.629 131.462Z" fill="white"/>
</svg>
