<svg width="34" height="34" viewBox="0 0 34 34" fill="none" xmlns="http://www.w3.org/2000/svg">
<g clip-path="url(#clip0_542_158)">
<path d="M17 31.875C13.0549 31.875 9.27139 30.3078 6.48179 27.5182C3.69218 24.7286 2.125 20.9451 2.125 17C2.125 13.0549 3.69218 9.27139 6.48179 6.48179C9.27139 3.69218 13.0549 2.125 17 2.125C20.9451 2.125 24.7286 3.69218 27.5182 6.48179C30.3078 9.27139 31.875 13.0549 31.875 17C31.875 20.9451 30.3078 24.7286 27.5182 27.5182C24.7286 30.3078 20.9451 31.875 17 31.875ZM17 34C21.5087 34 25.8327 32.2089 29.0208 29.0208C32.2089 25.8327 34 21.5087 34 17C34 12.4913 32.2089 8.1673 29.0208 4.97919C25.8327 1.79107 21.5087 0 17 0C12.4913 0 8.1673 1.79107 4.97919 4.97919C1.79107 8.1673 0 12.4913 0 17C0 21.5087 1.79107 25.8327 4.97919 29.0208C8.1673 32.2089 12.4913 34 17 34Z" fill="#F8F8F8" fill-opacity="0.85"/>
<path d="M14.5159 24.2887C15.3039 23.9638 16.1476 23.795 17 23.7915C18.9465 23.7915 20.4149 24.6585 21.7812 25.5468C22.2317 25.84 22.6822 25.4001 22.3805 24.9581C21.182 23.1944 19.0697 20.604 17 20.604C15.8737 20.604 14.7348 21.3711 13.736 22.355C13.9145 22.7375 14.0788 23.1165 14.229 23.4919C14.3268 23.7384 14.4224 24.0026 14.5159 24.2845V24.2887ZM12.75 24.0826C12.75 26.0376 11.322 27.625 9.5625 27.625C7.803 27.625 6.375 26.0398 6.375 24.0826C6.375 22.5824 8.24925 19.2164 9.12475 17.7289C9.16917 17.6521 9.233 17.5884 9.30983 17.5441C9.38667 17.4997 9.4738 17.4764 9.5625 17.4764C9.6512 17.4764 9.73833 17.4997 9.81517 17.5441C9.892 17.5884 9.95583 17.6521 10.0002 17.7289C10.8757 19.2164 12.75 22.5824 12.75 24.0826ZM14.875 13.8125C14.875 15.572 13.923 17 12.75 17C11.577 17 10.625 15.572 10.625 13.8125C10.625 12.053 11.577 10.625 12.75 10.625C13.923 10.625 14.875 12.053 14.875 13.8125ZM23.375 13.8125C23.375 15.572 22.423 17 21.25 17C20.077 17 19.125 15.572 19.125 13.8125C19.125 12.053 20.077 10.625 21.25 10.625C22.423 10.625 23.375 12.053 23.375 13.8125ZM20.1875 7.4375C20.1875 7.15571 20.2994 6.88546 20.4987 6.6862C20.698 6.48694 20.9682 6.375 21.25 6.375C23.7192 6.375 26.2437 7.616 27.5124 10.149C27.5762 10.2739 27.6146 10.4101 27.6255 10.5499C27.6364 10.6897 27.6195 10.8303 27.5758 10.9635C27.532 11.0968 27.4624 11.22 27.3708 11.3262C27.2793 11.4324 27.1676 11.5194 27.0422 11.5823C26.9168 11.6451 26.7803 11.6825 26.6404 11.6923C26.5005 11.7021 26.3601 11.6841 26.2272 11.6393C26.0943 11.5946 25.9716 11.524 25.8661 11.4316C25.7606 11.3392 25.6745 11.2268 25.6126 11.101C24.7541 9.384 23.0308 8.5 21.25 8.5C20.9682 8.5 20.698 8.38806 20.4987 8.1888C20.2994 7.98954 20.1875 7.71929 20.1875 7.4375ZM14.875 7.4375C14.875 7.15571 14.7631 6.88546 14.5638 6.6862C14.3645 6.48694 14.0943 6.375 13.8125 6.375C11.3433 6.375 8.81875 7.616 7.55012 10.149C7.48633 10.2739 7.44789 10.4101 7.43701 10.5499C7.42614 10.6897 7.44304 10.8303 7.48675 10.9635C7.53045 11.0968 7.6001 11.22 7.69168 11.3262C7.78325 11.4324 7.89494 11.5194 8.0203 11.5823C8.14566 11.6451 8.28222 11.6825 8.4221 11.6923C8.56198 11.7021 8.70241 11.6841 8.83531 11.6393C8.9682 11.5946 9.09092 11.524 9.1964 11.4316C9.30188 11.3392 9.38803 11.2268 9.44988 11.101C10.3084 9.384 12.0318 8.5 13.8125 8.5C14.0943 8.5 14.3645 8.38806 14.5638 8.1888C14.7631 7.98954 14.875 7.71929 14.875 7.4375Z" fill="#F8F8F8" fill-opacity="0.85"/>
</g>
<defs>
<clipPath id="clip0_542_158">
<rect width="34" height="34" fill="white"/>
</clipPath>
</defs>
</svg>
