<svg width="20" height="20" viewBox="0 0 20 20" fill="none" xmlns="http://www.w3.org/2000/svg">
<path d="M1.8052 20C1.30619 20 0.880534 19.822 0.528216 19.466C0.176072 19.11 0 18.6807 0 18.1781V2.63637C0 2.17208 0.164299 1.77555 0.492897 1.44677C0.821669 1.11818 1.2182 0.953876 1.68249 0.953876H10.163L8.80255 2.31431H1.68249C1.58849 2.31431 1.51131 2.34449 1.45096 2.40484C1.39061 2.46518 1.36044 2.54236 1.36044 2.63637V18.3175C1.36044 18.4115 1.39061 18.4887 1.45096 18.549C1.51131 18.6094 1.58849 18.6396 1.68249 18.6396H12.2097C12.3037 18.6396 12.3809 18.6094 12.4412 18.549C12.5015 18.4887 12.5317 18.4115 12.5317 18.3175V15.2385H14.023V18.1867C14.023 18.6871 13.8463 19.1144 13.4929 19.4686C13.1396 19.8229 12.7134 20 12.2144 20H1.8052ZM3.50574 16.4943V15.1338H10.0201V16.4943H3.50574ZM3.50574 13.4754V12.1152H8.00565V13.4754H3.50574ZM13.0288 12.4551L9.63373 9.06025H6.01732V4.56034H9.63373L13.0288 1.16527V12.4551ZM14.9125 9.78259V3.83774C15.4237 4.17994 15.8218 4.62374 16.1068 5.16914C16.392 5.71454 16.5345 6.26595 16.5345 6.82338C16.5345 7.38081 16.3947 7.92786 16.1149 8.46454C15.8351 9.00121 15.4343 9.44056 14.9125 9.78259ZM14.9125 13.6203V12.2016C15.9724 11.7603 16.8216 11.0455 17.4602 10.0573C18.0989 9.06923 18.4182 7.9869 18.4182 6.8103C18.4182 5.63369 18.1032 4.54691 17.4733 3.54996C16.8434 2.55317 15.9899 1.8406 14.9125 1.41224V0C16.3762 0.434642 17.5531 1.28596 18.4433 2.55396C19.3336 3.82178 19.7787 5.24056 19.7787 6.8103C19.7787 8.38003 19.3336 9.79881 18.4433 11.0666C17.5531 12.3345 16.3762 13.1857 14.9125 13.6203Z" fill="white"/>
</svg>
